<svg width="13" height="13" viewBox="0 0 13 13" fill="none" xmlns="http://www.w3.org/2000/svg">
<g id="check-circle 1" clip-path="url(#clip0_101_11)">
<path id="Vector" d="M11.9166 6.00166V6.5C11.916 7.66806 11.5378 8.80461 10.8384 9.74015C10.139 10.6757 9.15593 11.3601 8.0358 11.6913C6.91567 12.0225 5.7185 11.9827 4.62282 11.5779C3.52714 11.1731 2.59167 10.425 1.95592 9.44508C1.32017 8.46518 1.0182 7.30603 1.09505 6.1405C1.17191 4.97497 1.62347 3.86551 2.38238 2.97758C3.1413 2.08965 4.16691 1.47083 5.30625 1.21341C6.44559 0.955991 7.63763 1.07376 8.70457 1.54916" stroke="black" stroke-width="2" stroke-linecap="round" stroke-linejoin="round"/>
<path id="Vector_2" d="M11.9167 2.16666L6.5 7.58874L4.875 5.96374" stroke="black" stroke-width="2" stroke-linecap="round" stroke-linejoin="round"/>
</g>
<defs>
<clipPath id="clip0_101_11">
<rect width="13" height="13" fill="white"/>
</clipPath>
</defs>
</svg>
